<?xml version="1.0" encoding="utf-8"?>
<!-- Generator: Adobe Illustrator 26.2.1, SVG Export Plug-In . SVG Version: 6.00 Build 0)  -->
<svg version="1.1" xmlns="http://www.w3.org/2000/svg" xmlns:xlink="http://www.w3.org/1999/xlink" x="0px" y="0px"
	 viewBox="0 0 320 320" style="enable-background:new 0 0 320 320;" xml:space="preserve">
<style type="text/css">
	.st0{fill:#FEC141;}
	.st1{fill:#00A3E0;}
	.st2{fill:#FFFFFF;}
</style>
<g id="Background_Flag">
	<rect y="160" class="st0" width="320" height="160"/>
	<rect y="0" class="st1" width="320" height="160"/>
</g>
<g id="Text">
	<g>
		<path class="st2" d="M234.9,200.5c-2.2-4.6-4.4-9.2-6.4-13.4c1.4-2.2,3.8-4.3,3.7-6.3c-0.1-2.6-1.9-5.2-3.4-7.6
			c-1.8-2.9-4-5.6-6.6-9.2c-3.6,5.4-7.3,10.1-10.2,15.3c-2,3.5,1.2,5.4,3.6,7.1c-2.4,4.7-4.6,9.4-7,14.1c-12.8,0-25.5,0-38.4,0
			c-2.3-4.7-4.6-9.5-7.1-14.7c11.9-1.2,18.7-8.8,24.9-17.7c6-8.6,12.4-17,18.8-25.8c-9.1-12.6-17.9-25.4-27.3-37.8
			c-4.1-5.4-10.4-7.9-17.6-9c2.6-5.1,5-9.9,7.4-14.7c14.4,0,28.6,0,43.3,0c2.2,4.5,4.5,9.3,6.7,13.8c-1.6,1.8-3.2,3.6-5.3,5.9
			c3.7,5.6,7.2,10.9,11.3,17c4.1-6.1,7.8-11.5,11.6-17.2c-2-2.2-3.4-3.8-5-5.6c2.1-4.3,4.4-9.1,6.7-13.8c13,0,25.7,0,38.9,0
			c2.4,4.6,4.9,9.4,7.6,14.6c-11.4,1.3-18.9,8-25,16.9c-6.2,9-12.9,17.7-19.4,26.7c8.7,12.2,17.2,24.4,26,36.3
			c4.4,6,10.3,9,18.7,10.6c-2.4,5-4.8,9.8-7.1,14.6C263.8,200.5,249.6,200.5,234.9,200.5z"/>
		<path class="st2" d="M83.6,174.3c14.5,0,28.4,0.1,42.2-0.1c4.1-0.1,7.4-2.3,9.6-5.9c1.4-2.3,2.8-4.7,4.3-7.3
			c4.5,2.5,8.8,4.9,13.4,7.5c-5.5,10.8-11,21.3-16.4,31.9c-34.2,0-67.9,0-102.1,0c10.3-20.1,20.5-39.9,30.8-59.8
			C55.2,120.9,45,101,34.6,80.9c34.1,0,67.8,0,102,0c5.2,10.1,10.5,20.5,16.1,31.3c-4.4,2.5-8.9,4.9-13.5,7.5
			c-1.3-2.2-2.5-4.1-3.6-6.1c-2.4-4.3-6.1-6.5-10.9-6.5c-13.4,0-26.8,0-41.1,0c5.9,11.5,11.6,22.5,17.3,33.6
			C95.2,151.7,89.5,162.8,83.6,174.3z"/>
	</g>
	<g>
		<polygon class="st2" points="40,212.3 35.2,212.3 35.2,237.8 37.3,237.8 40,237.8 52.3,237.8 52.3,233.2 40,233.2 		"/>
		<path class="st2" d="M63.5,212.3l-9.8,25.6h5.2l1.4-4.1h9.4l1.4,4.1h5.2l-9.8-25.6H63.5z M62,229.1l3.1-8.7l3.1,8.7H62z"/>
		<polygon class="st2" points="90.7,229.5 85.8,212.3 79.5,212.3 79.5,237.8 83.9,237.8 83.9,220 88.6,235 92.8,235 97.5,219.7 
			97.5,237.8 101.9,237.8 101.9,212.3 95.6,212.3 		"/>
		<path class="st2" d="M123.7,225.8c-0.8-0.5-1.8-0.9-2.9-1c1.1-0.2,2-0.5,2.7-1s1.3-1.1,1.7-1.9s0.6-1.6,0.6-2.6
			c0-1.5-0.3-2.7-0.9-3.7s-1.5-1.8-2.7-2.4s-2.6-0.8-4.2-0.8h-5.6h-2.7h-2.1v25.6h2.1h2.7h5.9c1.7,0,3.1-0.3,4.2-0.8
			s2.1-1.3,2.7-2.4s0.9-2.3,0.9-3.8v-0.1c0-1.1-0.2-2.1-0.6-3S124.5,226.3,123.7,225.8z M117.8,216.9c1,0,1.8,0.2,2.3,0.7
			s0.8,1.1,0.8,1.9c0,0.9-0.3,1.6-0.8,2.1s-1.3,0.8-2.3,0.8h-5.4v-5.5H117.8z M121.3,230.2c0,1-0.3,1.7-0.9,2.2s-1.5,0.8-2.6,0.8
			h-5.4V227h5.4c0.7,0,1.4,0.1,1.9,0.4s0.9,0.6,1.2,1S121.3,229.5,121.3,230.2L121.3,230.2z"/>
		<path class="st2" d="M144.7,213.3c-1.5-0.7-3.3-1.1-5.5-1.1h-3.6h-2.4h-2.4v25.6h2.4h2.4h3.6c2.2,0,4-0.4,5.6-1.1s2.6-1.8,3.4-3.2
			s1.1-3,1.1-4.8v-7.2c0-1.9-0.4-3.6-1.2-5S146.2,214.1,144.7,213.3z M144.3,228.8c0,1.4-0.4,2.5-1.3,3.2s-2.1,1.1-3.7,1.1h-3.7
			v-16.3h3.7c1.6,0,2.8,0.4,3.7,1.1s1.3,1.8,1.3,3.2V228.8z"/>
		<path class="st2" d="M160.7,212.3l-9.8,25.6h5.2l1.4-4.1h9.4l1.4,4.1h5.2l-9.8-25.6H160.7z M159.1,229.1l3.1-8.7l3.1,8.7H159.1z"
			/>
		<path class="st2" d="M200.2,213.3c-1.5-0.7-3.3-1.1-5.5-1.1h-3.6h-2.4h-2.4v25.6h2.4h2.4h3.6c2.2,0,4-0.4,5.6-1.1s2.6-1.8,3.4-3.2
			s1.1-3,1.1-4.8v-7.2c0-1.9-0.4-3.6-1.2-5S201.7,214.1,200.2,213.3z M199.8,228.8c0,1.4-0.4,2.5-1.3,3.2s-2.1,1.1-3.7,1.1h-3.7
			v-16.3h3.7c1.6,0,2.8,0.4,3.7,1.1s1.3,1.8,1.3,3.2V228.8z"/>
		<polygon class="st2" points="211.3,212.3 209.6,212.3 209.6,237.8 211.3,237.8 214.4,237.8 226.7,237.8 226.7,233.2 214.4,233.2 
			214.4,227.5 224.8,227.5 224.8,222.8 214.4,222.8 214.4,216.9 226.7,216.9 226.7,212.3 214.4,212.3 		"/>
		<polygon class="st2" points="235.9,212.3 231.1,212.3 231.1,237.8 233.2,237.8 235.9,237.8 248.2,237.8 248.2,233.2 235.9,233.2 
					"/>
		<polygon class="st2" points="265.9,216.9 265.9,212.3 247.2,212.3 247.2,216.9 254.1,216.9 254.1,237.8 258.9,237.8 258.9,216.9 
					"/>
		<path class="st2" d="M282.1,237.8h5.2l-9.8-25.6h-3.1l-9.8,25.6h5.2l1.4-4.1h9.4L282.1,237.8z M272.9,229.1l3.1-8.7l3.1,8.7H272.9
			z"/>
	</g>
</g>
</svg>
